# xmcd
#
# Track frame offsets:
#	150
#	13376
#	27308
#	41676
#	59605
#	75337
#	87320
#	106741
#	124808
#	139589
#	154998
#
# Disc length: 2255 seconds
#
# Revision: 0
# Processed by: cddbd v1.5.2PL0 Copyright (c) Steve Scherf et al.
# Submitted via: EasyCDDAExtractor 16.0.1.1
#
DISCID=8c08cd0b
DTITLE=Audra Mae and the Almighty Sound
DYEAR=2012
DGENRE=Country
TTITLE0=The Real Thing
TTITLE1=My Friend The Devil
TTITLE2=Little Red Wagon
TTITLE3=Annie Get Your Gun
TTITLE4=I'm a Diamond
TTITLE5=Smokin' the Boys
TTITLE6=Old Italian Love Songs
TTITLE7=Ne'er Do Well
TTITLE8=Climb
TTITLE9=Jebediah Moonshine's Friday Night Shack Party
TTITLE10=Two Melodies
EXTD=
EXTT0=
EXTT1=
EXTT2=
EXTT3=
EXTT4=
EXTT5=
EXTT6=
EXTT7=
EXTT8=
EXTT9=
EXTT10=
PLAYORDER=
